<svg width="264" height="264" viewBox="0 0 264 264" fill="none" xmlns="http://www.w3.org/2000/svg">
<rect width="264" height="264" rx="66" fill="#100943"/>
<path d="M198 0C234.451 0 264 29.5492 264 66V131.996C190.565 131.731 130.896 73.0513 129.044 0H198Z" fill="#ED143B"/>
<path d="M52 66H85H172.5L184.184 67.3951C196.78 68.8991 206.452 79.2741 207.07 91.9449L208 111H174.5V102.102C174.5 101.702 174.456 101.303 174.369 100.913V100.913C173.828 98.4755 172.08 96.4835 169.733 95.6302L169.068 95.3883C168.361 95.1314 167.615 95 166.864 95H85V126H167.085C168.334 126 169.554 125.63 170.593 124.938V124.938C172.454 123.697 173.746 121.768 174.185 119.575L174.348 118.76C174.449 118.255 174.5 117.74 174.5 117.225V111H208L207.018 129.412C206.412 140.768 198.497 150.413 187.477 153.222L180.5 155L212.5 198H174.5L146 155H85V198H52V66Z" fill="white"/>
</svg>
