<svg width="1125" height="1125" viewBox="0 0 1125 1125" fill="none" xmlns="http://www.w3.org/2000/svg">
<path d="M844.712 186.764C896.888 189.005 938.554 231.018 940.362 283.21L950.127 565.138C950.943 588.689 941.945 611.521 925.282 628.184L489.252 1064.21C456.057 1097.41 402.238 1097.41 369.044 1064.21L60.1042 755.275C26.9097 722.08 26.9096 668.261 60.1042 635.067L495.837 199.334C512.673 182.498 535.8 173.495 559.588 174.516L844.712 186.764ZM777.706 348.773C744.706 315.773 691.204 315.773 658.205 348.773C625.205 381.772 625.205 435.274 658.205 468.274C691.204 501.273 744.706 501.273 777.706 468.274C810.705 435.274 810.705 381.772 777.706 348.773Z" fill="#F96000"/>
</svg>
