<svg width="1250" height="814" viewBox="0 0 1250 814" fill="none" xmlns="http://www.w3.org/2000/svg">
<path d="M327.5 553C399.573 553 458 611.427 458 683.5C458 755.573 399.573 814 327.5 814C255.427 814 197 755.573 197 683.5C197 611.427 255.427 553 327.5 553ZM327.5 629C297.4 629 273 653.4 273 683.5C273 713.6 297.4 738 327.5 738C357.6 738 382 713.6 382 683.5C382 653.4 357.6 629 327.5 629Z" fill="#F96000"/>
<path d="M216.454 543C175.344 575.798 149 626.322 149 683H85C38.0558 683 4.83259e-08 644.944 0 598V543H216.454ZM800 683H507C507 626.322 480.656 575.798 439.546 543H800V683ZM715 0C761.944 0 800 38.0558 800 85V490H0V85C0 38.0558 38.0558 1.28853e-06 85 0H715Z" fill="#F96000"/>
<path d="M1018.5 553C1090.57 553 1149 611.427 1149 683.5C1149 755.573 1090.57 814 1018.5 814C946.427 814 888 755.573 888 683.5C888 611.427 946.427 553 1018.5 553ZM1018.5 629C988.4 629 964 653.4 964 683.5C964 713.6 988.4 738 1018.5 738C1048.6 738 1073 713.6 1073 683.5C1073 653.4 1048.6 629 1018.5 629Z" fill="#F96000"/>
<path d="M1059.18 142C1086.95 142 1112.97 155.57 1128.87 178.344L1177.5 248L1236.9 342.227C1245.46 355.798 1250 371.513 1250 387.557V598C1250 633.287 1228.5 663.551 1197.88 676.405C1194.41 580.601 1115.65 504 1019 504C937.396 504 868.548 558.608 847 633.273V227C847 180.056 885.056 142 932 142H1059.18ZM925 393H1168.5L1056.5 214.5H925V393Z" fill="#F96000"/>
</svg>
