<svg width="1042" height="990" viewBox="0 0 1042 990" fill="none" xmlns="http://www.w3.org/2000/svg">
<path d="M523 0C753.41 0 941.785 179.966 955.23 407H861.866C862.355 400.232 862.604 393.405 862.604 386.525C862.604 216.131 710.334 78 522.5 78C334.666 78.0001 182.396 216.132 182.396 386.525C182.396 393.405 182.646 400.232 183.135 407H90.7695C104.215 179.966 292.59 0 523 0Z" fill="#F96000"/>
<path d="M954.77 672.352C955.042 679.846 954.992 687.407 954.604 695.022C946.75 849.186 804.007 967.212 635.778 958.641C620.363 957.855 605.268 956.032 590.571 953.253L626.064 858.852C641.792 862.87 658.37 865.021 675.497 865.021C776.841 865.021 858.997 789.805 858.997 697.021C858.997 694.945 858.954 692.878 858.872 690.82L954.77 672.352Z" fill="#F96000"/>
<path d="M0 472C0 425.056 38.0558 387 85 387H241C246.523 387 251 391.477 251 397V631C251 677.944 212.944 716 166 716H85C38.0558 716 0 677.944 0 631V472Z" fill="#F96000"/>
<path d="M1042 472C1042 425.056 1003.94 387 957 387H801C795.477 387 791 391.477 791 397V631C791 677.944 829.056 716 876 716H957C1003.94 716 1042 677.944 1042 631V472Z" fill="#F96000"/>
<rect x="429" y="827" width="247" height="163" rx="81.5" fill="#F96000"/>
</svg>
