<svg width="701" height="223" viewBox="0 0 701 223" fill="none" xmlns="http://www.w3.org/2000/svg">
<path d="M363.6 80L351.85 48.7H351.65C351.717 49.3667 351.767 50.2167 351.8 51.25C351.867 52.2833 351.917 53.4167 351.95 54.65C351.983 55.85 352 57.0833 352 58.35V80H347.85V44.3H354.5L365.5 73.55H365.7L376.9 44.3H383.5V80H379.05V58.05C379.05 56.8833 379.067 55.7333 379.1 54.6C379.133 53.4333 379.183 52.35 379.25 51.35C379.317 50.3167 379.367 49.45 379.4 48.75H379.2L367.3 80H363.6ZM402.761 52.75C406.028 52.75 408.445 53.4667 410.011 54.9C411.578 56.3333 412.361 58.6167 412.361 61.75V80H409.161L408.311 76.2H408.111C407.345 77.1667 406.545 77.9833 405.711 78.65C404.911 79.2833 403.978 79.75 402.911 80.05C401.878 80.35 400.611 80.5 399.111 80.5C397.511 80.5 396.061 80.2167 394.761 79.65C393.495 79.0833 392.495 78.2167 391.761 77.05C391.028 75.85 390.661 74.35 390.661 72.55C390.661 69.8833 391.711 67.8333 393.811 66.4C395.911 64.9333 399.145 64.1333 403.511 64L408.061 63.85V62.25C408.061 60.0167 407.578 58.4667 406.611 57.6C405.645 56.7333 404.278 56.3 402.511 56.3C401.111 56.3 399.778 56.5167 398.511 56.95C397.245 57.35 396.061 57.8167 394.961 58.35L393.611 55.05C394.778 54.4167 396.161 53.8833 397.761 53.45C399.361 52.9833 401.028 52.75 402.761 52.75ZM404.061 67.05C400.728 67.1833 398.411 67.7167 397.111 68.65C395.845 69.5833 395.211 70.9 395.211 72.6C395.211 74.1 395.661 75.2 396.561 75.9C397.495 76.6 398.678 76.95 400.111 76.95C402.378 76.95 404.261 76.3333 405.761 75.1C407.261 73.8333 408.011 71.9 408.011 69.3V66.9L404.061 67.05ZM436.989 53.2V56.9H425.039V80H420.639V53.2H436.989ZM452.42 52.75C455.686 52.75 458.103 53.4667 459.67 54.9C461.236 56.3333 462.02 58.6167 462.02 61.75V80H458.82L457.97 76.2H457.77C457.003 77.1667 456.203 77.9833 455.37 78.65C454.57 79.2833 453.636 79.75 452.57 80.05C451.536 80.35 450.27 80.5 448.77 80.5C447.17 80.5 445.72 80.2167 444.42 79.65C443.153 79.0833 442.153 78.2167 441.42 77.05C440.686 75.85 440.32 74.35 440.32 72.55C440.32 69.8833 441.37 67.8333 443.47 66.4C445.57 64.9333 448.803 64.1333 453.17 64L457.72 63.85V62.25C457.72 60.0167 457.236 58.4667 456.27 57.6C455.303 56.7333 453.936 56.3 452.17 56.3C450.77 56.3 449.436 56.5167 448.17 56.95C446.903 57.35 445.72 57.8167 444.62 58.35L443.27 55.05C444.436 54.4167 445.82 53.8833 447.42 53.45C449.02 52.9833 450.686 52.75 452.42 52.75ZM453.72 67.05C450.386 67.1833 448.07 67.7167 446.77 68.65C445.503 69.5833 444.87 70.9 444.87 72.6C444.87 74.1 445.32 75.2 446.22 75.9C447.153 76.6 448.336 76.95 449.77 76.95C452.036 76.95 453.92 76.3333 455.42 75.1C456.92 73.8333 457.67 71.9 457.67 69.3V66.9L453.72 67.05ZM477.347 52.7C479.38 52.7 481.147 52.9833 482.647 53.55C484.147 54.0833 485.314 54.8833 486.147 55.95C486.98 56.9833 487.397 58.25 487.397 59.75C487.397 61.3833 486.947 62.6833 486.047 63.65C485.147 64.5833 483.914 65.2667 482.347 65.7V65.9C483.414 66.2 484.397 66.6167 485.297 67.15C486.197 67.6833 486.914 68.3833 487.447 69.25C488.014 70.1167 488.297 71.2333 488.297 72.6C488.297 74.0667 487.88 75.4 487.047 76.6C486.247 77.8 484.997 78.75 483.297 79.45C481.63 80.15 479.48 80.5 476.847 80.5C475.58 80.5 474.364 80.4333 473.197 80.3C472.064 80.1667 471.03 79.9667 470.097 79.7C469.197 79.4333 468.397 79.1167 467.697 78.75V74.8C468.83 75.3333 470.164 75.8167 471.697 76.25C473.264 76.6833 474.964 76.9 476.797 76.9C478.13 76.9 479.33 76.75 480.397 76.45C481.497 76.15 482.364 75.6833 482.997 75.05C483.63 74.3833 483.947 73.4833 483.947 72.35C483.947 71.3167 483.664 70.4833 483.097 69.85C482.53 69.1833 481.68 68.6833 480.547 68.35C479.447 68.0167 478.03 67.85 476.297 67.85H472.697V64.25H475.597C477.897 64.25 479.73 63.95 481.097 63.35C482.497 62.7167 483.197 61.65 483.197 60.15C483.197 58.8833 482.664 57.9333 481.597 57.3C480.564 56.6667 479.064 56.35 477.097 56.35C475.63 56.35 474.33 56.5 473.197 56.8C472.097 57.0667 470.88 57.4833 469.547 58.05L467.997 54.55C469.43 53.9167 470.93 53.45 472.497 53.15C474.064 52.85 475.68 52.7 477.347 52.7ZM498.959 69.55C498.959 69.85 498.942 70.2833 498.909 70.85C498.909 71.3833 498.892 71.9667 498.859 72.6C498.825 73.2 498.792 73.7833 498.759 74.35C498.725 74.8833 498.692 75.3167 498.659 75.65L513.009 53.2H518.409V80H514.309V64.2C514.309 63.6667 514.309 62.9667 514.309 62.1C514.342 61.2333 514.375 60.3833 514.409 59.55C514.442 58.6833 514.475 58.0333 514.509 57.6L500.259 80H494.809V53.2H498.959V69.55ZM531.338 53.2V64.35H545.888V53.2H550.288V80H545.888V68.05H531.338V80H526.938V53.2H531.338ZM365.75 104.9H357V128H352.65V104.9H344V101.2H365.75V104.9ZM393.841 114.55C393.841 116.783 393.541 118.767 392.941 120.5C392.374 122.2 391.541 123.65 390.441 124.85C389.374 126.05 388.058 126.967 386.491 127.6C384.958 128.2 383.241 128.5 381.341 128.5C379.574 128.5 377.941 128.2 376.441 127.6C374.941 126.967 373.641 126.05 372.541 124.85C371.441 123.65 370.574 122.2 369.941 120.5C369.341 118.767 369.041 116.783 369.041 114.55C369.041 111.583 369.541 109.083 370.541 107.05C371.541 104.983 372.974 103.417 374.841 102.35C376.708 101.25 378.924 100.7 381.491 100.7C383.924 100.7 386.058 101.25 387.891 102.35C389.758 103.417 391.208 104.983 392.241 107.05C393.308 109.083 393.841 111.583 393.841 114.55ZM373.591 114.55C373.591 116.65 373.858 118.483 374.391 120.05C374.958 121.583 375.824 122.767 376.991 123.6C378.158 124.433 379.641 124.85 381.441 124.85C383.241 124.85 384.724 124.433 385.891 123.6C387.058 122.767 387.908 121.583 388.441 120.05C389.008 118.483 389.291 116.65 389.291 114.55C389.291 112.417 389.008 110.6 388.441 109.1C387.874 107.6 387.008 106.45 385.841 105.65C384.708 104.817 383.224 104.4 381.391 104.4C378.658 104.4 376.674 105.3 375.441 107.1C374.208 108.9 373.591 111.383 373.591 114.55ZM422.364 107.95C422.364 109.617 421.864 110.917 420.864 111.85C419.864 112.783 418.581 113.417 417.014 113.75V113.95C418.681 114.183 420.131 114.783 421.364 115.75C422.598 116.683 423.214 118.15 423.214 120.15C423.214 121.283 422.998 122.333 422.564 123.3C422.164 124.267 421.531 125.1 420.664 125.8C419.798 126.5 418.681 127.05 417.314 127.45C415.948 127.817 414.298 128 412.364 128H400.814V101.2H412.314C414.214 101.2 415.914 101.417 417.414 101.85C418.948 102.25 420.148 102.95 421.014 103.95C421.914 104.917 422.364 106.25 422.364 107.95ZM418.664 120.15C418.664 118.617 418.081 117.517 416.914 116.85C415.748 116.183 414.031 115.85 411.764 115.85H405.214V124.45H411.864C414.064 124.45 415.748 124.133 416.914 123.5C418.081 122.833 418.664 121.717 418.664 120.15ZM417.914 108.5C417.914 107.233 417.448 106.317 416.514 105.75C415.614 105.15 414.131 104.85 412.064 104.85H405.214V112.2H411.264C413.431 112.2 415.081 111.9 416.214 111.3C417.348 110.7 417.914 109.767 417.914 108.5ZM439.773 100.75C443.04 100.75 445.456 101.467 447.023 102.9C448.59 104.333 449.373 106.617 449.373 109.75V128H446.173L445.323 124.2H445.123C444.356 125.167 443.556 125.983 442.723 126.65C441.923 127.283 440.99 127.75 439.923 128.05C438.89 128.35 437.623 128.5 436.123 128.5C434.523 128.5 433.073 128.217 431.773 127.65C430.506 127.083 429.506 126.217 428.773 125.05C428.04 123.85 427.673 122.35 427.673 120.55C427.673 117.883 428.723 115.833 430.823 114.4C432.923 112.933 436.156 112.133 440.523 112L445.073 111.85V110.25C445.073 108.017 444.59 106.467 443.623 105.6C442.656 104.733 441.29 104.3 439.523 104.3C438.123 104.3 436.79 104.517 435.523 104.95C434.256 105.35 433.073 105.817 431.973 106.35L430.623 103.05C431.79 102.417 433.173 101.883 434.773 101.45C436.373 100.983 438.04 100.75 439.773 100.75ZM441.073 115.05C437.74 115.183 435.423 115.717 434.123 116.65C432.856 117.583 432.223 118.9 432.223 120.6C432.223 122.1 432.673 123.2 433.573 123.9C434.506 124.6 435.69 124.95 437.123 124.95C439.39 124.95 441.273 124.333 442.773 123.1C444.273 121.833 445.023 119.9 445.023 117.3V114.9L441.073 115.05ZM470.4 100.7C473.7 100.7 476.35 101.85 478.35 104.15C480.384 106.45 481.4 109.917 481.4 114.55C481.4 117.583 480.934 120.15 480 122.25C479.1 124.317 477.817 125.883 476.15 126.95C474.517 127.983 472.584 128.5 470.35 128.5C468.984 128.5 467.767 128.317 466.7 127.95C465.634 127.583 464.717 127.117 463.95 126.55C463.217 125.95 462.584 125.3 462.05 124.6H461.75C461.817 125.167 461.884 125.883 461.95 126.75C462.017 127.617 462.05 128.367 462.05 129V140H457.65V101.2H461.25L461.85 104.85H462.05C462.584 104.083 463.217 103.383 463.95 102.75C464.717 102.117 465.617 101.617 466.65 101.25C467.717 100.883 468.967 100.7 470.4 100.7ZM469.6 104.4C467.8 104.4 466.35 104.75 465.25 105.45C464.15 106.117 463.35 107.133 462.85 108.5C462.35 109.867 462.084 111.6 462.05 113.7V114.55C462.05 116.75 462.284 118.617 462.75 120.15C463.217 121.683 464 122.85 465.1 123.65C466.234 124.45 467.767 124.85 469.7 124.85C471.334 124.85 472.667 124.4 473.7 123.5C474.767 122.6 475.55 121.383 476.05 119.85C476.584 118.283 476.85 116.5 476.85 114.5C476.85 111.433 476.25 108.983 475.05 107.15C473.884 105.317 472.067 104.4 469.6 104.4ZM492.812 101.2V112.35H507.362V101.2H511.762V128H507.362V116.05H492.812V128H488.412V101.2H492.812ZM543.548 114.55C543.548 116.783 543.248 118.767 542.648 120.5C542.081 122.2 541.248 123.65 540.148 124.85C539.081 126.05 537.765 126.967 536.198 127.6C534.665 128.2 532.948 128.5 531.048 128.5C529.281 128.5 527.648 128.2 526.148 127.6C524.648 126.967 523.348 126.05 522.248 124.85C521.148 123.65 520.281 122.2 519.648 120.5C519.048 118.767 518.748 116.783 518.748 114.55C518.748 111.583 519.248 109.083 520.248 107.05C521.248 104.983 522.681 103.417 524.548 102.35C526.415 101.25 528.631 100.7 531.198 100.7C533.631 100.7 535.765 101.25 537.598 102.35C539.465 103.417 540.915 104.983 541.948 107.05C543.015 109.083 543.548 111.583 543.548 114.55ZM523.298 114.55C523.298 116.65 523.565 118.483 524.098 120.05C524.665 121.583 525.531 122.767 526.698 123.6C527.865 124.433 529.348 124.85 531.148 124.85C532.948 124.85 534.431 124.433 535.598 123.6C536.765 122.767 537.615 121.583 538.148 120.05C538.715 118.483 538.998 116.65 538.998 114.55C538.998 112.417 538.715 110.6 538.148 109.1C537.581 107.6 536.715 106.45 535.548 105.65C534.415 104.817 532.931 104.4 531.098 104.4C528.365 104.4 526.381 105.3 525.148 107.1C523.915 108.9 523.298 111.383 523.298 114.55ZM566.871 101.2V104.9H554.921V128H550.521V101.2H566.871ZM594.964 114.55C594.964 116.783 594.664 118.767 594.064 120.5C593.497 122.2 592.664 123.65 591.564 124.85C590.497 126.05 589.181 126.967 587.614 127.6C586.081 128.2 584.364 128.5 582.464 128.5C580.697 128.5 579.064 128.2 577.564 127.6C576.064 126.967 574.764 126.05 573.664 124.85C572.564 123.65 571.697 122.2 571.064 120.5C570.464 118.767 570.164 116.783 570.164 114.55C570.164 111.583 570.664 109.083 571.664 107.05C572.664 104.983 574.097 103.417 575.964 102.35C577.831 101.25 580.047 100.7 582.614 100.7C585.047 100.7 587.181 101.25 589.014 102.35C590.881 103.417 592.331 104.983 593.364 107.05C594.431 109.083 594.964 111.583 594.964 114.55ZM574.714 114.55C574.714 116.65 574.981 118.483 575.514 120.05C576.081 121.583 576.947 122.767 578.114 123.6C579.281 124.433 580.764 124.85 582.564 124.85C584.364 124.85 585.847 124.433 587.014 123.6C588.181 122.767 589.031 121.583 589.564 120.05C590.131 118.483 590.414 116.65 590.414 114.55C590.414 112.417 590.131 110.6 589.564 109.1C588.997 107.6 588.131 106.45 586.964 105.65C585.831 104.817 584.347 104.4 582.514 104.4C579.781 104.4 577.797 105.3 576.564 107.1C575.331 108.9 574.714 111.383 574.714 114.55ZM370.55 162.55C370.55 164.783 370.25 166.767 369.65 168.5C369.083 170.2 368.25 171.65 367.15 172.85C366.083 174.05 364.767 174.967 363.2 175.6C361.667 176.2 359.95 176.5 358.05 176.5C356.283 176.5 354.65 176.2 353.15 175.6C351.65 174.967 350.35 174.05 349.25 172.85C348.15 171.65 347.283 170.2 346.65 168.5C346.05 166.767 345.75 164.783 345.75 162.55C345.75 159.583 346.25 157.083 347.25 155.05C348.25 152.983 349.683 151.417 351.55 150.35C353.417 149.25 355.633 148.7 358.2 148.7C360.633 148.7 362.767 149.25 364.6 150.35C366.467 151.417 367.917 152.983 368.95 155.05C370.017 157.083 370.55 159.583 370.55 162.55ZM350.3 162.55C350.3 164.65 350.567 166.483 351.1 168.05C351.667 169.583 352.533 170.767 353.7 171.6C354.867 172.433 356.35 172.85 358.15 172.85C359.95 172.85 361.433 172.433 362.6 171.6C363.767 170.767 364.617 169.583 365.15 168.05C365.717 166.483 366 164.65 366 162.55C366 160.417 365.717 158.6 365.15 157.1C364.583 155.6 363.717 154.45 362.55 153.65C361.417 152.817 359.933 152.4 358.1 152.4C355.367 152.4 353.383 153.3 352.15 155.1C350.917 156.9 350.3 159.383 350.3 162.55ZM376.123 159.9C376.123 156 376.507 152.683 377.273 149.95C378.073 147.183 379.29 144.983 380.923 143.35C382.59 141.683 384.723 140.567 387.323 140C389.49 139.533 391.607 139.117 393.673 138.75C395.74 138.383 397.673 138.05 399.473 137.75L400.223 141.6C399.357 141.733 398.39 141.9 397.323 142.1C396.257 142.267 395.173 142.45 394.073 142.65C392.973 142.817 391.907 143 390.873 143.2C389.873 143.367 388.99 143.533 388.223 143.7C387.123 143.933 386.14 144.333 385.273 144.9C384.407 145.433 383.657 146.167 383.023 147.1C382.423 148.033 381.94 149.183 381.573 150.55C381.207 151.917 380.99 153.533 380.923 155.4H381.223C381.69 154.767 382.323 154.117 383.123 153.45C383.957 152.783 384.94 152.217 386.073 151.75C387.24 151.283 388.557 151.05 390.023 151.05C392.357 151.05 394.29 151.567 395.823 152.6C397.39 153.6 398.557 155 399.323 156.8C400.123 158.6 400.523 160.7 400.523 163.1C400.523 166.067 400.007 168.55 398.973 170.55C397.94 172.55 396.507 174.05 394.673 175.05C392.84 176.017 390.707 176.5 388.273 176.5C386.44 176.5 384.773 176.15 383.273 175.45C381.773 174.717 380.49 173.65 379.423 172.25C378.357 170.85 377.54 169.117 376.973 167.05C376.407 164.983 376.123 162.6 376.123 159.9ZM388.623 172.85C390.09 172.85 391.357 172.55 392.423 171.95C393.523 171.35 394.373 170.367 394.973 169C395.573 167.633 395.873 165.817 395.873 163.55C395.873 160.817 395.357 158.667 394.323 157.1C393.323 155.5 391.657 154.7 389.323 154.7C387.857 154.7 386.523 155.033 385.323 155.7C384.123 156.333 383.123 157.067 382.323 157.9C381.523 158.733 380.957 159.433 380.623 160C380.623 161.633 380.74 163.217 380.973 164.75C381.207 166.283 381.607 167.667 382.173 168.9C382.773 170.1 383.59 171.067 384.623 171.8C385.69 172.5 387.023 172.85 388.623 172.85ZM430.755 162.55C430.755 164.783 430.455 166.767 429.855 168.5C429.288 170.2 428.455 171.65 427.355 172.85C426.288 174.05 424.972 174.967 423.405 175.6C421.872 176.2 420.155 176.5 418.255 176.5C416.488 176.5 414.855 176.2 413.355 175.6C411.855 174.967 410.555 174.05 409.455 172.85C408.355 171.65 407.488 170.2 406.855 168.5C406.255 166.767 405.955 164.783 405.955 162.55C405.955 159.583 406.455 157.083 407.455 155.05C408.455 152.983 409.888 151.417 411.755 150.35C413.622 149.25 415.838 148.7 418.405 148.7C420.838 148.7 422.972 149.25 424.805 150.35C426.672 151.417 428.122 152.983 429.155 155.05C430.222 157.083 430.755 159.583 430.755 162.55ZM410.505 162.55C410.505 164.65 410.772 166.483 411.305 168.05C411.872 169.583 412.738 170.767 413.905 171.6C415.072 172.433 416.555 172.85 418.355 172.85C420.155 172.85 421.638 172.433 422.805 171.6C423.972 170.767 424.822 169.583 425.355 168.05C425.922 166.483 426.205 164.65 426.205 162.55C426.205 160.417 425.922 158.6 425.355 157.1C424.788 155.6 423.922 154.45 422.755 153.65C421.622 152.817 420.138 152.4 418.305 152.4C415.572 152.4 413.588 153.3 412.355 155.1C411.122 156.9 410.505 159.383 410.505 162.55ZM450.479 148.7C453.779 148.7 456.429 149.85 458.429 152.15C460.462 154.45 461.479 157.917 461.479 162.55C461.479 165.583 461.012 168.15 460.079 170.25C459.179 172.317 457.895 173.883 456.229 174.95C454.595 175.983 452.662 176.5 450.429 176.5C449.062 176.5 447.845 176.317 446.779 175.95C445.712 175.583 444.795 175.117 444.029 174.55C443.295 173.95 442.662 173.3 442.129 172.6H441.829C441.895 173.167 441.962 173.883 442.029 174.75C442.095 175.617 442.129 176.367 442.129 177V188H437.729V149.2H441.329L441.929 152.85H442.129C442.662 152.083 443.295 151.383 444.029 150.75C444.795 150.117 445.695 149.617 446.729 149.25C447.795 148.883 449.045 148.7 450.479 148.7ZM449.679 152.4C447.879 152.4 446.429 152.75 445.329 153.45C444.229 154.117 443.429 155.133 442.929 156.5C442.429 157.867 442.162 159.6 442.129 161.7V162.55C442.129 164.75 442.362 166.617 442.829 168.15C443.295 169.683 444.079 170.85 445.179 171.65C446.312 172.45 447.845 172.85 449.779 172.85C451.412 172.85 452.745 172.4 453.779 171.5C454.845 170.6 455.629 169.383 456.129 167.85C456.662 166.283 456.929 164.5 456.929 162.5C456.929 159.433 456.329 156.983 455.129 155.15C453.962 153.317 452.145 152.4 449.679 152.4ZM463.802 149.2H468.502L474.302 164.45C474.635 165.35 474.935 166.217 475.202 167.05C475.502 167.883 475.769 168.7 476.002 169.5C476.235 170.267 476.419 171.017 476.552 171.75H476.752C476.952 170.917 477.269 169.833 477.702 168.5C478.135 167.133 478.585 165.767 479.052 164.4L484.502 149.2H489.252L477.702 179.7C477.069 181.367 476.319 182.817 475.452 184.05C474.619 185.317 473.585 186.283 472.352 186.95C471.152 187.65 469.685 188 467.952 188C467.152 188 466.452 187.95 465.852 187.85C465.252 187.783 464.735 187.7 464.302 187.6V184.1C464.669 184.167 465.102 184.233 465.602 184.3C466.135 184.367 466.685 184.4 467.252 184.4C468.285 184.4 469.169 184.2 469.902 183.8C470.669 183.433 471.319 182.883 471.852 182.15C472.385 181.45 472.835 180.617 473.202 179.65L474.602 176.1L463.802 149.2ZM512.414 149.2V172.3H516.314V185.3H512.064V176H493.414V185.3H489.214V172.3H491.364C492.897 170.167 494.164 167.85 495.164 165.35C496.197 162.817 496.964 160.183 497.464 157.45C497.997 154.683 498.28 151.933 498.314 149.2H512.414ZM502.214 152.65C502.08 154.917 501.73 157.267 501.164 159.7C500.597 162.1 499.864 164.4 498.964 166.6C498.097 168.8 497.08 170.7 495.914 172.3H508.164V152.65H502.214ZM544.866 162.55C544.866 164.783 544.566 166.767 543.966 168.5C543.4 170.2 542.566 171.65 541.466 172.85C540.4 174.05 539.083 174.967 537.516 175.6C535.983 176.2 534.266 176.5 532.366 176.5C530.6 176.5 528.966 176.2 527.466 175.6C525.966 174.967 524.666 174.05 523.566 172.85C522.466 171.65 521.6 170.2 520.966 168.5C520.366 166.767 520.066 164.783 520.066 162.55C520.066 159.583 520.566 157.083 521.566 155.05C522.566 152.983 524 151.417 525.866 150.35C527.733 149.25 529.95 148.7 532.516 148.7C534.95 148.7 537.083 149.25 538.916 150.35C540.783 151.417 542.233 152.983 543.266 155.05C544.333 157.083 544.866 159.583 544.866 162.55ZM524.616 162.55C524.616 164.65 524.883 166.483 525.416 168.05C525.983 169.583 526.85 170.767 528.016 171.6C529.183 172.433 530.666 172.85 532.466 172.85C534.266 172.85 535.75 172.433 536.916 171.6C538.083 170.767 538.933 169.583 539.466 168.05C540.033 166.483 540.316 164.65 540.316 162.55C540.316 160.417 540.033 158.6 539.466 157.1C538.9 155.6 538.033 154.45 536.866 153.65C535.733 152.817 534.25 152.4 532.416 152.4C529.683 152.4 527.7 153.3 526.466 155.1C525.233 156.9 524.616 159.383 524.616 162.55ZM573.39 155.95C573.39 157.617 572.89 158.917 571.89 159.85C570.89 160.783 569.607 161.417 568.04 161.75V161.95C569.707 162.183 571.157 162.783 572.39 163.75C573.623 164.683 574.24 166.15 574.24 168.15C574.24 169.283 574.023 170.333 573.59 171.3C573.19 172.267 572.557 173.1 571.69 173.8C570.823 174.5 569.707 175.05 568.34 175.45C566.973 175.817 565.323 176 563.39 176H551.84V149.2H563.34C565.24 149.2 566.94 149.417 568.44 149.85C569.973 150.25 571.173 150.95 572.04 151.95C572.94 152.917 573.39 154.25 573.39 155.95ZM569.69 168.15C569.69 166.617 569.107 165.517 567.94 164.85C566.773 164.183 565.057 163.85 562.79 163.85H556.24V172.45H562.89C565.09 172.45 566.773 172.133 567.94 171.5C569.107 170.833 569.69 169.717 569.69 168.15ZM568.94 156.5C568.94 155.233 568.473 154.317 567.54 153.75C566.64 153.15 565.157 152.85 563.09 152.85H556.24V160.2H562.29C564.457 160.2 566.107 159.9 567.24 159.3C568.373 158.7 568.94 157.767 568.94 156.5ZM590.798 148.75C594.065 148.75 596.482 149.467 598.048 150.9C599.615 152.333 600.398 154.617 600.398 157.75V176H597.198L596.348 172.2H596.148C595.382 173.167 594.582 173.983 593.748 174.65C592.948 175.283 592.015 175.75 590.948 176.05C589.915 176.35 588.648 176.5 587.148 176.5C585.548 176.5 584.098 176.217 582.798 175.65C581.532 175.083 580.532 174.217 579.798 173.05C579.065 171.85 578.698 170.35 578.698 168.55C578.698 165.883 579.748 163.833 581.848 162.4C583.948 160.933 587.182 160.133 591.548 160L596.098 159.85V158.25C596.098 156.017 595.615 154.467 594.648 153.6C593.682 152.733 592.315 152.3 590.548 152.3C589.148 152.3 587.815 152.517 586.548 152.95C585.282 153.35 584.098 153.817 582.998 154.35L581.648 151.05C582.815 150.417 584.198 149.883 585.798 149.45C587.398 148.983 589.065 148.75 590.798 148.75ZM592.098 163.05C588.765 163.183 586.448 163.717 585.148 164.65C583.882 165.583 583.248 166.9 583.248 168.6C583.248 170.1 583.698 171.2 584.598 171.9C585.532 172.6 586.715 172.95 588.148 172.95C590.415 172.95 592.298 172.333 593.798 171.1C595.298 169.833 596.048 167.9 596.048 165.3V162.9L592.098 163.05ZM613.076 149.2V160.35H627.626V149.2H632.026V176H627.626V164.05H613.076V176H608.676V149.2H613.076ZM644.662 165.55C644.662 165.85 644.645 166.283 644.612 166.85C644.612 167.383 644.595 167.967 644.562 168.6C644.528 169.2 644.495 169.783 644.462 170.35C644.428 170.883 644.395 171.317 644.362 171.65L658.712 149.2H664.112V176H660.012V160.2C660.012 159.667 660.012 158.967 660.012 158.1C660.045 157.233 660.078 156.383 660.112 155.55C660.145 154.683 660.178 154.033 660.212 153.6L645.962 176H640.512V149.2H644.662V165.55ZM676.791 165.55C676.791 165.85 676.774 166.283 676.741 166.85C676.741 167.383 676.724 167.967 676.691 168.6C676.657 169.2 676.624 169.783 676.591 170.35C676.557 170.883 676.524 171.317 676.491 171.65L690.841 149.2H696.241V176H692.141V160.2C692.141 159.667 692.141 158.967 692.141 158.1C692.174 157.233 692.207 156.383 692.241 155.55C692.274 154.683 692.307 154.033 692.341 153.6L678.091 176H672.641V149.2H676.791V165.55Z" fill="white"/>
<rect x="316" width="3" height="222" fill="#F96000"/>
<path d="M20.2852 0C28.204 0.000152139 35.0626 4.53817 38.4033 11.1553H13.5693V33.0625C5.84418 31.6065 8.17167e-06 24.825 0 16.6768V0H20.2852Z" fill="#F96000"/>
<path d="M263.702 -4.95911e-05C255.783 0.000102548 248.924 4.53812 245.583 11.1552H270.417V33.0625C278.143 31.6064 283.987 24.825 283.987 16.6767V-4.95911e-05H263.702Z" fill="#F96000"/>
<path d="M20.2852 222.054C28.204 222.054 35.0626 217.516 38.4033 210.899H13.5693V188.992C5.84418 190.448 8.17167e-06 197.229 0 205.378V222.054H20.2852Z" fill="#F96000"/>
<path d="M263.702 222.054C255.783 222.054 248.924 217.516 245.583 210.899H270.417V188.992C278.143 190.448 283.987 197.229 283.987 205.378V222.054H263.702Z" fill="#F96000"/>
<path d="M0 42.5421C7.46864 42.5421 13.5232 48.5967 13.5232 56.0653V164.342C13.5232 171.811 7.46864 177.866 0 177.866V42.5421Z" fill="white"/>
<path d="M0 42.5421C7.46864 42.5421 13.5232 48.5967 13.5232 56.0653V164.342C13.5232 171.811 7.46864 177.866 0 177.866V42.5421Z" fill="white"/>
<path d="M0 42.5421C7.46864 42.5421 13.5232 48.5967 13.5232 56.0653V164.342C13.5232 171.811 7.46864 177.866 0 177.866V42.5421Z" fill="white"/>
<path d="M0 42.5421C7.46864 42.5421 13.5232 48.5967 13.5232 56.0653V164.342C13.5232 171.811 7.46864 177.866 0 177.866V42.5421Z" fill="white"/>
<path d="M27.0461 22.2797C34.5147 22.2797 40.5693 28.3342 40.5693 35.8029V186.254C40.5693 193.723 34.5147 199.777 27.0461 199.777V22.2797Z" fill="white"/>
<path d="M27.0461 22.2797C34.5147 22.2797 40.5693 28.3342 40.5693 35.8029V186.254C40.5693 193.723 34.5147 199.777 27.0461 199.777V22.2797Z" fill="white"/>
<path d="M27.0461 22.2797C34.5147 22.2797 40.5693 28.3342 40.5693 35.8029V186.254C40.5693 193.723 34.5147 199.777 27.0461 199.777V22.2797Z" fill="white"/>
<path d="M27.0461 22.2797C34.5147 22.2797 40.5693 28.3342 40.5693 35.8029V186.254C40.5693 193.723 34.5147 199.777 27.0461 199.777V22.2797Z" fill="white"/>
<path d="M283.986 42.5421C276.517 42.5421 270.463 48.5967 270.463 56.0653V164.342C270.463 171.811 276.517 177.866 283.986 177.866V42.5421Z" fill="white"/>
<path d="M283.986 42.5421C276.517 42.5421 270.463 48.5967 270.463 56.0653V164.342C270.463 171.811 276.517 177.866 283.986 177.866V42.5421Z" fill="white"/>
<path d="M283.986 42.5421C276.517 42.5421 270.463 48.5967 270.463 56.0653V164.342C270.463 171.811 276.517 177.866 283.986 177.866V42.5421Z" fill="white"/>
<path d="M283.986 42.5421C276.517 42.5421 270.463 48.5967 270.463 56.0653V164.342C270.463 171.811 276.517 177.866 283.986 177.866V42.5421Z" fill="white"/>
<path d="M256.94 22.2797C249.471 22.2797 243.417 28.3342 243.417 35.8029V186.254C243.417 193.723 249.471 199.777 256.94 199.777V22.2797Z" fill="white"/>
<path d="M256.94 22.2797C249.471 22.2797 243.417 28.3342 243.417 35.8029V186.254C243.417 193.723 249.471 199.777 256.94 199.777V22.2797Z" fill="white"/>
<path d="M256.94 22.2797C249.471 22.2797 243.417 28.3342 243.417 35.8029V186.254C243.417 193.723 249.471 199.777 256.94 199.777V22.2797Z" fill="white"/>
<path d="M256.94 22.2797C249.471 22.2797 243.417 28.3342 243.417 35.8029V186.254C243.417 193.723 249.471 199.777 256.94 199.777V22.2797Z" fill="white"/>
<rect x="81.1364" y="-3.62396e-05" width="13.5232" height="69.3074" fill="white"/>
<rect x="81.1364" y="-3.62396e-05" width="13.5232" height="69.3074" fill="white"/>
<rect x="81.1364" y="-3.62396e-05" width="13.5232" height="69.3074" fill="white"/>
<rect x="81.1364" y="-3.62396e-05" width="13.5232" height="69.3074" fill="white"/>
<path d="M54.0903 13.5231C54.0903 6.05448 60.1448 -4.95911e-05 67.6134 -4.95911e-05V69.3074H54.0903V13.5231Z" fill="white"/>
<path d="M54.0903 13.5231C54.0903 6.05448 60.1448 -4.95911e-05 67.6134 -4.95911e-05V69.3074H54.0903V13.5231Z" fill="white"/>
<path d="M54.0903 13.5231C54.0903 6.05448 60.1448 -4.95911e-05 67.6134 -4.95911e-05V69.3074H54.0903V13.5231Z" fill="white"/>
<path d="M54.0903 13.5231C54.0903 6.05448 60.1448 -4.95911e-05 67.6134 -4.95911e-05V69.3074H54.0903V13.5231Z" fill="white"/>
<rect x="135.228" y="-3.62396e-05" width="13.5232" height="69.3074" fill="white"/>
<rect x="135.228" y="-3.62396e-05" width="13.5232" height="69.3074" fill="white"/>
<rect x="135.228" y="-3.62396e-05" width="13.5232" height="69.3074" fill="white"/>
<rect x="135.228" y="-3.62396e-05" width="13.5232" height="69.3074" fill="white"/>
<path d="M216.369 -3.62396e-05C223.838 -3.62396e-05 229.892 6.05449 229.892 13.5231V69.3074H216.369V-3.62396e-05Z" fill="white"/>
<path d="M216.369 -3.62396e-05C223.838 -3.62396e-05 229.892 6.05449 229.892 13.5231V69.3074H216.369V-3.62396e-05Z" fill="white"/>
<path d="M216.369 -3.62396e-05C223.838 -3.62396e-05 229.892 6.05449 229.892 13.5231V69.3074H216.369V-3.62396e-05Z" fill="white"/>
<path d="M216.369 -3.62396e-05C223.838 -3.62396e-05 229.892 6.05449 229.892 13.5231V69.3074H216.369V-3.62396e-05Z" fill="white"/>
<rect x="189.322" y="-3.62396e-05" width="13.5232" height="69.3074" fill="white"/>
<rect x="189.322" y="-3.62396e-05" width="13.5232" height="69.3074" fill="white"/>
<rect x="189.322" y="-3.62396e-05" width="13.5232" height="69.3074" fill="white"/>
<rect x="189.322" y="-3.62396e-05" width="13.5232" height="69.3074" fill="white"/>
<rect x="162.275" y="-3.62396e-05" width="13.5232" height="69.3074" fill="white"/>
<rect x="162.275" y="-3.62396e-05" width="13.5232" height="69.3074" fill="white"/>
<rect x="162.275" y="-3.62396e-05" width="13.5232" height="69.3074" fill="white"/>
<rect x="162.275" y="-3.62396e-05" width="13.5232" height="69.3074" fill="white"/>
<rect x="108.184" y="-3.62396e-05" width="13.5232" height="69.3074" fill="white"/>
<rect x="108.184" y="-3.62396e-05" width="13.5232" height="69.3074" fill="white"/>
<rect x="108.184" y="-3.62396e-05" width="13.5232" height="69.3074" fill="white"/>
<rect x="108.184" y="-3.62396e-05" width="13.5232" height="69.3074" fill="white"/>
<rect x="81.1364" y="150.939" width="13.5232" height="70.5511" fill="white"/>
<rect x="81.1364" y="150.939" width="13.5232" height="70.5511" fill="white"/>
<rect x="81.1364" y="150.939" width="13.5232" height="70.5511" fill="white"/>
<rect x="81.1364" y="150.939" width="13.5232" height="70.5511" fill="white"/>
<path d="M54.0903 150.939H67.6134V221.49C60.1448 221.49 54.0903 215.435 54.0903 207.967V150.939Z" fill="white"/>
<path d="M54.0903 150.939H67.6134V221.49C60.1448 221.49 54.0903 215.435 54.0903 207.967V150.939Z" fill="white"/>
<path d="M54.0903 150.939H67.6134V221.49C60.1448 221.49 54.0903 215.435 54.0903 207.967V150.939Z" fill="white"/>
<path d="M54.0903 150.939H67.6134V221.49C60.1448 221.49 54.0903 215.435 54.0903 207.967V150.939Z" fill="white"/>
<rect x="135.228" y="150.939" width="13.5232" height="70.5511" fill="white"/>
<rect x="135.228" y="150.939" width="13.5232" height="70.5511" fill="white"/>
<rect x="135.228" y="150.939" width="13.5232" height="70.5511" fill="white"/>
<rect x="135.228" y="150.939" width="13.5232" height="70.5511" fill="white"/>
<path d="M216.369 150.939H229.892V207.967C229.892 215.435 223.838 221.49 216.369 221.49V150.939Z" fill="white"/>
<path d="M216.369 150.939H229.892V207.967C229.892 215.435 223.838 221.49 216.369 221.49V150.939Z" fill="white"/>
<path d="M216.369 150.939H229.892V207.967C229.892 215.435 223.838 221.49 216.369 221.49V150.939Z" fill="white"/>
<path d="M216.369 150.939H229.892V207.967C229.892 215.435 223.838 221.49 216.369 221.49V150.939Z" fill="white"/>
<rect x="189.322" y="150.939" width="13.5232" height="70.5511" fill="white"/>
<rect x="189.322" y="150.939" width="13.5232" height="70.5511" fill="white"/>
<rect x="189.322" y="150.939" width="13.5232" height="70.5511" fill="white"/>
<rect x="189.322" y="150.939" width="13.5232" height="70.5511" fill="white"/>
<rect x="162.275" y="150.939" width="13.5232" height="70.5511" fill="white"/>
<rect x="162.275" y="150.939" width="13.5232" height="70.5511" fill="white"/>
<rect x="162.275" y="150.939" width="13.5232" height="70.5511" fill="white"/>
<rect x="162.275" y="150.939" width="13.5232" height="70.5511" fill="white"/>
<rect x="108.184" y="150.939" width="13.5232" height="70.5511" fill="white"/>
<rect x="108.184" y="150.939" width="13.5232" height="70.5511" fill="white"/>
<rect x="108.184" y="150.939" width="13.5232" height="70.5511" fill="white"/>
<rect x="108.184" y="150.939" width="13.5232" height="70.5511" fill="white"/>
<path d="M187.499 137.804H177.618V110.095C177.618 106.453 176.498 103.128 174.259 100.119C172.085 97.1106 169.12 94.7355 165.366 92.9938C161.611 91.1993 157.461 90.302 152.915 90.302H147.579V137.804H137.698V82.385H152.915C159.173 82.385 164.904 83.6253 170.109 86.106C175.379 88.5867 179.529 91.8326 182.559 95.8439C185.589 91.8326 189.706 88.5867 194.91 86.106C200.18 83.6253 205.944 82.385 212.203 82.385H227.42V137.804H217.538V90.302H212.203C207.657 90.302 203.507 91.1993 199.752 92.9938C196.063 94.7355 193.099 97.1106 190.859 100.119C188.619 103.128 187.499 106.453 187.499 110.095V137.804Z" fill="#F96000"/>
<path fill-rule="evenodd" clip-rule="evenodd" d="M189.328 139.783H175.79V109.341C175.79 103.195 170.443 96.9275 164.114 93.9466C160.688 92.3334 156.861 91.5277 152.915 91.5277L148.751 91.5604V139.816L135.228 139.783V80.4057H152.915C159.6 80.4057 165.768 81.7349 171.365 84.402C175.838 86.5083 179.577 89.1467 182.557 92.314C185.523 89.1499 189.227 86.5121 193.647 84.405L193.653 84.4022L193.659 84.3994C199.318 81.7358 205.515 80.4057 212.203 80.4057H229.89V139.783H216.352V116.032V91.5277H212.203C208.277 91.5277 204.413 92.3177 201.012 93.9427C194.686 96.9266 189.328 103.196 189.328 109.341V139.783ZM212.203 90.302C207.657 90.302 203.507 91.1992 199.752 92.9937C196.063 94.7355 193.099 97.1106 190.859 100.119C188.619 103.127 187.499 106.453 187.499 110.094V137.804H177.618V110.094C177.618 106.453 176.498 103.127 174.259 100.119C172.085 97.1106 169.12 94.7355 165.366 92.9937C161.611 91.1992 157.461 90.302 152.915 90.302H147.579V137.804H137.698V82.385H152.915C159.173 82.385 164.904 83.6253 170.109 86.1059C174.559 88.2008 178.211 90.8415 181.064 94.0279C181.589 94.6147 182.088 95.22 182.559 95.8439C183.03 95.2196 183.528 94.6139 184.053 94.0267C186.897 90.8408 190.516 88.2006 194.91 86.1059C200.18 83.6253 205.944 82.385 212.203 82.385H227.42V137.804H217.538V90.302H212.203Z" fill="#F96000"/>
<path fill-rule="evenodd" clip-rule="evenodd" d="M123.547 131.004L123.542 131.012C121.854 133.667 119.592 135.802 116.778 137.395C113.912 139.018 110.709 139.816 107.221 139.816H54.0903V128.688H107.221C109.024 128.688 110.468 127.371 111.684 126.229C112.928 125.009 113.517 123.629 113.517 121.993C113.517 120.353 112.926 119.008 111.697 117.848L111.684 117.836L111.672 117.824C110.448 116.629 109.007 115.298 107.221 115.298H72.9757C69.5368 115.298 66.3425 115.251 63.4361 113.641L63.4273 113.636L63.4187 113.631C60.6052 112.038 58.3436 109.903 56.6556 107.248L56.6504 107.24L56.6452 107.232C54.9393 104.489 54.0903 101.474 54.0903 98.2288C54.0903 94.9867 54.9377 91.9939 56.6503 89.2968C58.3354 86.5904 60.5971 84.4244 63.4187 82.8267L63.4273 82.8218L63.4361 82.8169C66.3425 81.2069 69.5368 80.4057 72.9757 80.4057H121.91V91.5338H72.9757C71.2593 91.5338 69.8006 92.8568 68.5001 94.0841C67.2708 95.2443 66.6806 96.589 66.6806 98.2288C66.6806 99.8595 67.2653 101.236 68.5004 102.452C69.7892 103.618 71.2478 104.17 72.9757 104.17H107.221C110.709 104.17 113.912 104.968 116.778 106.591C119.6 108.188 121.862 110.354 123.547 113.061C125.259 115.758 126.107 118.751 126.107 121.993C126.107 125.238 125.258 128.253 123.552 130.996L123.547 131.004ZM67.0163 103.853C65.3936 102.269 64.5822 100.394 64.5822 98.2288C64.5822 96.0636 65.3936 94.2153 67.0163 92.6838C68.695 91.0995 70.6815 90.3074 72.9757 90.3074H119.812V82.386H72.9757C69.8981 82.386 67.0723 83.099 64.4983 84.5248C61.9802 85.9507 59.9658 87.8782 58.4549 90.3074C56.9441 92.6838 56.1887 95.3243 56.1887 98.2288C56.1887 101.133 56.9441 103.8 58.4549 106.229C59.9658 108.606 61.9802 110.507 64.4983 111.933C67.0723 113.359 69.8981 114.072 72.9757 114.072H107.221C109.572 114.072 111.558 114.864 113.181 116.448C114.804 117.979 115.615 119.828 115.615 121.993C115.615 124.158 114.804 126.033 113.181 127.617C111.558 129.149 109.572 129.914 107.221 129.914H56.1887V137.836H107.221C110.355 137.836 113.181 137.123 115.699 135.697C118.217 134.271 120.231 132.37 121.742 129.993C123.253 127.564 124.008 124.897 124.008 121.993C124.008 119.088 123.253 116.448 121.742 114.072C120.231 111.642 118.217 109.715 115.699 108.289C113.181 106.863 110.355 106.15 107.221 106.15H72.9757C70.6815 106.15 68.695 105.384 67.0163 103.853Z" fill="#F96000"/>
<path d="M124.009 121.993C124.009 124.897 123.253 127.564 121.742 129.994C120.231 132.37 118.217 134.271 115.699 135.697C113.181 137.123 110.355 137.836 107.221 137.836H56.1887V129.914H107.221C109.572 129.914 111.558 129.149 113.181 127.617C114.804 126.033 115.615 124.158 115.615 121.993C115.615 119.828 114.804 117.979 113.181 116.448C111.558 114.864 109.572 114.072 107.221 114.072H72.9758C69.8981 114.072 67.0723 113.359 64.4983 111.933C61.9802 110.507 59.9658 108.606 58.4549 106.229C56.9441 103.8 56.1887 101.133 56.1887 98.2288C56.1887 95.3243 56.9441 92.6839 58.4549 90.3075C59.9658 87.8782 61.9802 85.9507 64.4983 84.5249C67.0723 83.099 69.8981 82.3861 72.9758 82.3861H119.812V90.3075H72.9758C70.6815 90.3075 68.6951 91.0996 67.0163 92.6839C65.3936 94.2153 64.5822 96.0637 64.5822 98.2288C64.5822 100.394 65.3936 102.269 67.0163 103.853C68.6951 105.384 70.6815 106.15 72.9758 106.15H107.221C110.355 106.15 113.181 106.863 115.699 108.289C118.217 109.715 120.231 111.642 121.742 114.072C123.253 116.448 124.009 119.088 124.009 121.993Z" fill="#F96000"/>
</svg>
