<svg width="770" height="770" viewBox="0 0 770 770" fill="none" xmlns="http://www.w3.org/2000/svg">
<rect width="770" height="770" fill="#111111"/>
<path fill-rule="evenodd" clip-rule="evenodd" d="M126.123 149H83V184.452C83 201.768 95.4143 216.185 111.828 219.287V172.738H164.653C157.556 158.658 142.967 149 126.123 149ZM169.229 190.931V219.905H169.245V192.123C169.245 191.724 169.24 191.327 169.229 190.931Z" fill="#F96000"/>
<path fill-rule="evenodd" clip-rule="evenodd" d="M643.573 149H686.695V184.452C686.695 201.768 674.281 216.185 657.867 219.287V172.738H605.042C612.14 158.658 626.728 149 643.573 149ZM600.466 190.931V219.905H600.45V192.123C600.45 191.724 600.455 191.327 600.466 190.931Z" fill="#F96000"/>
<path fill-rule="evenodd" clip-rule="evenodd" d="M126.123 621.062H83V585.61C83 568.294 95.4143 553.878 111.828 550.775V597.324H164.653C157.556 611.405 142.967 621.062 126.123 621.062ZM169.229 579.131V550.158H169.245V577.94C169.245 578.338 169.24 578.735 169.229 579.131Z" fill="#F96000"/>
<path fill-rule="evenodd" clip-rule="evenodd" d="M643.573 621.062H686.695V585.61C686.695 568.294 674.281 553.878 657.867 550.775V597.324H605.042C612.14 611.405 626.728 621.062 643.573 621.062ZM600.466 579.131V550.158H600.45V577.94C600.45 578.338 600.455 578.735 600.466 579.131Z" fill="#F96000"/>
<path d="M83 239.477C98.8773 239.477 111.748 252.348 111.748 268.225V498.407C111.748 514.285 98.8773 527.156 83 527.156V239.477Z" fill="white"/>
<path d="M83 239.477C98.8773 239.477 111.748 252.348 111.748 268.225V498.407C111.748 514.285 98.8773 527.156 83 527.156V239.477Z" fill="white"/>
<path d="M83 239.477C98.8773 239.477 111.748 252.348 111.748 268.225V498.407C111.748 514.285 98.8773 527.156 83 527.156V239.477Z" fill="white"/>
<path d="M83 239.477C98.8773 239.477 111.748 252.348 111.748 268.225V498.407C111.748 514.285 98.8773 527.156 83 527.156V239.477Z" fill="white"/>
<path d="M140.477 196.43C156.354 196.43 169.225 209.301 169.225 225.178V545.016C169.225 560.894 156.354 573.765 140.477 573.765V196.43Z" fill="white"/>
<path d="M140.477 196.43C156.354 196.43 169.225 209.301 169.225 225.178V545.016C169.225 560.894 156.354 573.765 140.477 573.765V196.43Z" fill="white"/>
<path d="M140.477 196.43C156.354 196.43 169.225 209.301 169.225 225.178V545.016C169.225 560.894 156.354 573.765 140.477 573.765V196.43Z" fill="white"/>
<path d="M140.477 196.43C156.354 196.43 169.225 209.301 169.225 225.178V545.016C169.225 560.894 156.354 573.765 140.477 573.765V196.43Z" fill="white"/>
<path d="M686.727 239.477C670.849 239.477 657.978 252.348 657.978 268.225V498.407C657.978 514.285 670.849 527.156 686.727 527.156V239.477Z" fill="white"/>
<path d="M686.727 239.477C670.849 239.477 657.978 252.348 657.978 268.225V498.407C657.978 514.285 670.849 527.156 686.727 527.156V239.477Z" fill="white"/>
<path d="M686.727 239.477C670.849 239.477 657.978 252.348 657.978 268.225V498.407C657.978 514.285 670.849 527.156 686.727 527.156V239.477Z" fill="white"/>
<path d="M686.727 239.477C670.849 239.477 657.978 252.348 657.978 268.225V498.407C657.978 514.285 670.849 527.156 686.727 527.156V239.477Z" fill="white"/>
<path d="M629.211 196.43C613.334 196.43 600.463 209.301 600.463 225.178V545.016C600.463 560.894 613.334 573.765 629.211 573.765V196.43Z" fill="white"/>
<path d="M629.211 196.43C613.334 196.43 600.463 209.301 600.463 225.178V545.016C600.463 560.894 613.334 573.765 629.211 573.765V196.43Z" fill="white"/>
<path d="M629.211 196.43C613.334 196.43 600.463 209.301 600.463 225.178V545.016C600.463 560.894 613.334 573.765 629.211 573.765V196.43Z" fill="white"/>
<path d="M629.211 196.43C613.334 196.43 600.463 209.301 600.463 225.178V545.016C600.463 560.894 613.334 573.765 629.211 573.765V196.43Z" fill="white"/>
<rect x="255.422" y="149" width="28.7484" height="147.338" fill="white"/>
<rect x="255.422" y="149" width="28.7484" height="147.338" fill="white"/>
<rect x="255.422" y="149" width="28.7484" height="147.338" fill="white"/>
<rect x="255.422" y="149" width="28.7484" height="147.338" fill="white"/>
<path d="M197.945 177.748C197.945 161.871 210.816 149 226.694 149V296.338H197.945V177.748Z" fill="white"/>
<path d="M197.945 177.748C197.945 161.871 210.816 149 226.694 149V296.338H197.945V177.748Z" fill="white"/>
<path d="M197.945 177.748C197.945 161.871 210.816 149 226.694 149V296.338H197.945V177.748Z" fill="white"/>
<path d="M197.945 177.748C197.945 161.871 210.816 149 226.694 149V296.338H197.945V177.748Z" fill="white"/>
<rect x="370.461" y="149" width="28.7484" height="147.338" fill="white"/>
<rect x="370.461" y="149" width="28.7484" height="147.338" fill="white"/>
<rect x="370.461" y="149" width="28.7484" height="147.338" fill="white"/>
<rect x="370.461" y="149" width="28.7484" height="147.338" fill="white"/>
<path d="M542.938 149C558.815 149 571.686 161.871 571.686 177.748V296.338H542.938V149Z" fill="white"/>
<path d="M542.938 149C558.815 149 571.686 161.871 571.686 177.748V296.338H542.938V149Z" fill="white"/>
<path d="M542.938 149C558.815 149 571.686 161.871 571.686 177.748V296.338H542.938V149Z" fill="white"/>
<path d="M542.938 149C558.815 149 571.686 161.871 571.686 177.748V296.338H542.938V149Z" fill="white"/>
<rect x="485.453" y="149" width="28.7484" height="147.338" fill="white"/>
<rect x="485.453" y="149" width="28.7484" height="147.338" fill="white"/>
<rect x="485.453" y="149" width="28.7484" height="147.338" fill="white"/>
<rect x="485.453" y="149" width="28.7484" height="147.338" fill="white"/>
<rect x="427.938" y="149" width="28.7484" height="147.338" fill="white"/>
<rect x="427.938" y="149" width="28.7484" height="147.338" fill="white"/>
<rect x="427.938" y="149" width="28.7484" height="147.338" fill="white"/>
<rect x="427.938" y="149" width="28.7484" height="147.338" fill="white"/>
<rect x="312.938" y="149" width="28.7484" height="147.338" fill="white"/>
<rect x="312.938" y="149" width="28.7484" height="147.338" fill="white"/>
<rect x="312.938" y="149" width="28.7484" height="147.338" fill="white"/>
<rect x="312.938" y="149" width="28.7484" height="147.338" fill="white"/>
<rect x="255.422" y="469.859" width="28.7484" height="149.982" fill="white"/>
<rect x="255.422" y="469.859" width="28.7484" height="149.982" fill="white"/>
<rect x="255.422" y="469.859" width="28.7484" height="149.982" fill="white"/>
<rect x="255.422" y="469.859" width="28.7484" height="149.982" fill="white"/>
<path d="M197.945 469.859H226.694V619.841C210.816 619.841 197.945 606.97 197.945 591.093V469.859Z" fill="white"/>
<path d="M197.945 469.859H226.694V619.841C210.816 619.841 197.945 606.97 197.945 591.093V469.859Z" fill="white"/>
<path d="M197.945 469.859H226.694V619.841C210.816 619.841 197.945 606.97 197.945 591.093V469.859Z" fill="white"/>
<path d="M197.945 469.859H226.694V619.841C210.816 619.841 197.945 606.97 197.945 591.093V469.859Z" fill="white"/>
<rect x="370.461" y="469.859" width="28.7484" height="149.982" fill="white"/>
<rect x="370.461" y="469.859" width="28.7484" height="149.982" fill="white"/>
<rect x="370.461" y="469.859" width="28.7484" height="149.982" fill="white"/>
<rect x="370.461" y="469.859" width="28.7484" height="149.982" fill="white"/>
<path d="M542.938 469.859H571.686V591.093C571.686 606.97 558.815 619.841 542.938 619.841V469.859Z" fill="white"/>
<path d="M542.938 469.859H571.686V591.093C571.686 606.97 558.815 619.841 542.938 619.841V469.859Z" fill="white"/>
<path d="M542.938 469.859H571.686V591.093C571.686 606.97 558.815 619.841 542.938 619.841V469.859Z" fill="white"/>
<path d="M542.938 469.859H571.686V591.093C571.686 606.97 558.815 619.841 542.938 619.841V469.859Z" fill="white"/>
<rect x="485.453" y="469.859" width="28.7484" height="149.982" fill="white"/>
<rect x="485.453" y="469.859" width="28.7484" height="149.982" fill="white"/>
<rect x="485.453" y="469.859" width="28.7484" height="149.982" fill="white"/>
<rect x="485.453" y="469.859" width="28.7484" height="149.982" fill="white"/>
<rect x="427.938" y="469.859" width="28.7484" height="149.982" fill="white"/>
<rect x="427.938" y="469.859" width="28.7484" height="149.982" fill="white"/>
<rect x="427.938" y="469.859" width="28.7484" height="149.982" fill="white"/>
<rect x="427.938" y="469.859" width="28.7484" height="149.982" fill="white"/>
<rect x="312.938" y="469.859" width="28.7484" height="149.982" fill="white"/>
<rect x="312.938" y="469.859" width="28.7484" height="149.982" fill="white"/>
<rect x="312.938" y="469.859" width="28.7484" height="149.982" fill="white"/>
<rect x="312.938" y="469.859" width="28.7484" height="149.982" fill="white"/>
<path d="M481.552 441.959H460.546V383.052C460.546 375.31 458.165 368.241 453.404 361.845C448.783 355.45 442.481 350.401 434.499 346.698C426.516 342.883 417.694 340.976 408.031 340.976H396.687V441.959H375.681V324.145H408.031C421.335 324.145 433.518 326.782 444.581 332.056C455.785 337.329 464.607 344.23 471.049 352.757C477.491 344.23 486.244 337.329 497.307 332.056C508.51 326.782 520.764 324.145 534.068 324.145H566.417V441.959H545.411V340.976H534.068C524.405 340.976 515.582 342.883 507.6 346.698C499.758 350.401 493.456 355.45 488.694 361.845C483.933 368.241 481.552 375.31 481.552 383.052V441.959Z" fill="#F96000"/>
<path fill-rule="evenodd" clip-rule="evenodd" d="M485.439 446.166H456.659V381.45C456.659 368.385 445.293 355.061 431.838 348.724C424.555 345.294 416.419 343.581 408.031 343.581L399.178 343.651V446.236L370.43 446.166V319.938H408.031C422.241 319.938 435.353 322.763 447.253 328.433C456.763 332.911 464.71 338.52 471.045 345.253C477.351 338.527 485.225 332.919 494.622 328.439L494.634 328.433L494.647 328.428C506.676 322.765 519.852 319.938 534.068 319.938H571.669V446.166H542.888V395.675V343.581H534.068C525.723 343.581 517.508 345.261 510.278 348.715C496.83 355.059 485.439 368.387 485.439 381.45V446.166ZM534.068 340.976C524.405 340.976 515.582 342.883 507.6 346.698C499.758 350.401 493.456 355.45 488.694 361.845C483.933 368.241 481.552 375.31 481.552 383.052V441.958H460.546V383.052C460.546 375.31 458.165 368.241 453.404 361.845C448.783 355.45 442.481 350.401 434.498 346.698C426.516 342.883 417.694 340.976 408.031 340.976H396.687V441.958H375.681V324.145H408.031C421.335 324.145 433.518 326.782 444.581 332.055C454.042 336.509 461.806 342.123 467.871 348.896C468.988 350.144 470.047 351.431 471.049 352.757C472.052 351.43 473.11 350.142 474.225 348.894C480.271 342.121 487.965 336.508 497.307 332.055C508.51 326.782 520.764 324.145 534.068 324.145H566.417V441.958H545.411V340.976H534.068Z" fill="#F96000"/>
<path fill-rule="evenodd" clip-rule="evenodd" d="M345.569 427.503L345.558 427.52C341.97 433.165 337.162 437.702 331.181 441.089C325.088 444.539 318.277 446.236 310.864 446.236H197.914V422.579H310.864C314.696 422.579 317.766 419.779 320.352 417.351C322.995 414.759 324.246 411.824 324.246 408.346C324.246 404.86 322.992 402.002 320.378 399.535L320.352 399.51L320.325 399.484C317.722 396.943 314.66 394.114 310.864 394.114H238.062C230.751 394.114 223.961 394.013 217.782 390.59L217.763 390.58L217.745 390.57C211.764 387.183 206.956 382.646 203.368 377.001L203.356 376.984L203.346 376.966C199.719 371.135 197.914 364.726 197.914 357.827C197.914 350.935 199.716 344.572 203.356 338.839C206.939 333.085 211.747 328.481 217.745 325.084L217.763 325.074L217.782 325.063C223.961 321.641 230.751 319.938 238.062 319.938H342.09V343.594H238.062C234.413 343.594 231.312 346.407 228.547 349.016C225.934 351.482 224.679 354.341 224.679 357.827C224.679 361.294 225.922 364.22 228.548 366.806C231.288 369.284 234.389 370.457 238.062 370.457H310.864C318.277 370.457 325.088 372.153 331.181 375.603C337.179 379 341.987 383.604 345.569 389.357C349.21 395.091 351.012 401.454 351.012 408.346C351.012 415.246 349.207 421.654 345.58 427.485L345.569 427.503ZM225.393 369.783C221.943 366.415 220.218 362.43 220.218 357.827C220.218 353.224 221.943 349.295 225.393 346.039C228.962 342.671 233.185 340.987 238.062 340.987H337.629V324.147H238.062C231.519 324.147 225.512 325.663 220.04 328.694C214.687 331.725 210.405 335.823 207.193 340.987C203.981 346.039 202.375 351.652 202.375 357.827C202.375 364.002 203.981 369.671 207.193 374.835C210.405 379.887 214.687 383.929 220.04 386.96C225.512 389.991 231.519 391.506 238.062 391.506H310.864C315.86 391.506 320.083 393.19 323.533 396.558C326.982 399.814 328.707 403.743 328.707 408.346C328.707 412.949 326.982 416.935 323.533 420.302C320.083 423.558 315.86 425.186 310.864 425.186H202.375V442.026H310.864C317.525 442.026 323.533 440.51 328.886 437.479C334.239 434.448 338.521 430.406 341.733 425.354C344.945 420.19 346.551 414.521 346.551 408.346C346.551 402.172 344.945 396.558 341.733 391.506C338.521 386.342 334.239 382.245 328.886 379.213C323.533 376.182 317.525 374.667 310.864 374.667H238.062C233.185 374.667 228.962 373.039 225.393 369.783Z" fill="#F96000"/>
<path d="M346.551 408.346C346.551 414.521 344.945 420.19 341.733 425.355C338.521 430.406 334.239 434.448 328.886 437.479C323.533 440.51 317.525 442.026 310.864 442.026H202.375V425.186H310.864C315.86 425.186 320.083 423.558 323.533 420.303C326.982 416.935 328.707 412.949 328.707 408.346C328.707 403.743 326.982 399.814 323.533 396.559C320.083 393.191 315.86 391.507 310.864 391.507H238.062C231.519 391.507 225.512 389.991 220.04 386.96C214.687 383.929 210.405 379.887 207.193 374.835C203.981 369.671 202.375 364.002 202.375 357.827C202.375 351.652 203.981 346.039 207.193 340.987C210.405 335.823 214.687 331.725 220.04 328.694C225.512 325.663 231.519 324.148 238.062 324.148H337.629V340.987H238.062C233.185 340.987 228.962 342.671 225.393 346.039C221.943 349.295 220.219 353.224 220.219 357.827C220.219 362.43 221.943 366.415 225.393 369.783C228.962 373.039 233.185 374.667 238.062 374.667H310.864C317.525 374.667 323.533 376.182 328.886 379.214C334.239 382.245 338.521 386.342 341.733 391.507C344.945 396.559 346.551 402.172 346.551 408.346Z" fill="#F96000"/>
</svg>
