<svg width="64" height="64" viewBox="0 0 64 64" fill="none" xmlns="http://www.w3.org/2000/svg">
<rect width="64" height="64" fill="#111111"/>
<path d="M11.249 12.8896C11.2535 12.9685 11.2568 13.0479 11.2568 13.1279V15.7881H6.39355C6.38182 15.7881 6.37011 15.7872 6.3584 15.7871H11.249V12.8896ZM7.12793 9C8.73943 9 10.1345 9.92399 10.8145 11.2705H5.75488V15.7266C4.1861 15.4275 3 14.0494 3 12.3936V9H7.12793Z" fill="#F96000"/>
<path d="M52.54 12.8896C52.5355 12.9685 52.5322 13.0479 52.5322 13.1279V15.7881H57.3945C57.4061 15.7881 57.4181 15.7872 57.4297 15.7871H52.54V12.8896ZM56.6611 9C55.0496 9 53.6546 9.92401 52.9746 11.2705H58.0342V15.7266C59.6029 15.4275 60.7891 14.0494 60.7891 12.3936V9H56.6611Z" fill="#F96000"/>
<path d="M11.249 50.3135C11.2535 50.2346 11.2568 50.1552 11.2568 50.0752V47.415H6.39355C6.38182 47.415 6.37011 47.4159 6.3584 47.416H11.249V50.3135ZM7.12793 54.2031C8.73946 54.2031 10.1345 53.2792 10.8145 51.9326H5.75488V47.4766C4.18609 47.7756 3 49.1537 3 50.8096V54.2031H7.12793Z" fill="#F96000"/>
<path d="M52.54 50.3135C52.5355 50.2346 52.5322 50.1552 52.5322 50.0752V47.415H57.3945C57.4061 47.415 57.4181 47.4159 57.4297 47.416H52.54V50.3135ZM56.6611 54.2031C55.0496 54.2031 53.6546 53.2792 52.9746 51.9326H58.0342V47.4766C59.6029 47.7756 60.7891 49.1537 60.7891 50.8096V54.2031H56.6611Z" fill="#F96000"/>
<path d="M3 17.6641V17.6641C4.51997 17.6641 5.75215 18.8962 5.75215 20.4162V42.4521C5.75215 43.9721 4.51997 45.2043 3 45.2043V45.2043V17.6641Z" fill="white"/>
<path d="M3 17.6641V17.6641C4.51997 17.6641 5.75215 18.8962 5.75215 20.4162V42.4521C5.75215 43.9721 4.51997 45.2043 3 45.2043V45.2043V17.6641Z" fill="white"/>
<path d="M3 17.6641V17.6641C4.51997 17.6641 5.75215 18.8962 5.75215 20.4162V42.4521C5.75215 43.9721 4.51997 45.2043 3 45.2043V45.2043V17.6641Z" fill="white"/>
<path d="M3 17.6641V17.6641C4.51997 17.6641 5.75215 18.8962 5.75215 20.4162V42.4521C5.75215 43.9721 4.51997 45.2043 3 45.2043V45.2043V17.6641Z" fill="white"/>
<path d="M8.5 13.5547V13.5547C10.02 13.5547 11.2522 14.7869 11.2522 16.3068V46.9257C11.2522 48.4457 10.02 49.6779 8.5 49.6779V49.6779V13.5547Z" fill="white"/>
<path d="M8.5 13.5547V13.5547C10.02 13.5547 11.2522 14.7869 11.2522 16.3068V46.9257C11.2522 48.4457 10.02 49.6779 8.5 49.6779V49.6779V13.5547Z" fill="white"/>
<path d="M8.5 13.5547V13.5547C10.02 13.5547 11.2522 14.7869 11.2522 16.3068V46.9257C11.2522 48.4457 10.02 49.6779 8.5 49.6779V49.6779V13.5547Z" fill="white"/>
<path d="M8.5 13.5547V13.5547C10.02 13.5547 11.2522 14.7869 11.2522 16.3068V46.9257C11.2522 48.4457 10.02 49.6779 8.5 49.6779V49.6779V13.5547Z" fill="white"/>
<path d="M60.7969 17.6641V17.6641C59.2769 17.6641 58.0447 18.8962 58.0447 20.4162V42.4521C58.0447 43.9721 59.2769 45.2043 60.7969 45.2043V45.2043V17.6641Z" fill="white"/>
<path d="M60.7969 17.6641V17.6641C59.2769 17.6641 58.0447 18.8962 58.0447 20.4162V42.4521C58.0447 43.9721 59.2769 45.2043 60.7969 45.2043V45.2043V17.6641Z" fill="white"/>
<path d="M60.7969 17.6641V17.6641C59.2769 17.6641 58.0447 18.8962 58.0447 20.4162V42.4521C58.0447 43.9721 59.2769 45.2043 60.7969 45.2043V45.2043V17.6641Z" fill="white"/>
<path d="M60.7969 17.6641V17.6641C59.2769 17.6641 58.0447 18.8962 58.0447 20.4162V42.4521C58.0447 43.9721 59.2769 45.2043 60.7969 45.2043V45.2043V17.6641Z" fill="white"/>
<path d="M55.3047 13.5547V13.5547C53.7847 13.5547 52.5525 14.7869 52.5525 16.3068V46.9257C52.5525 48.4457 53.7847 49.6779 55.3047 49.6779V49.6779V13.5547Z" fill="white"/>
<path d="M55.3047 13.5547V13.5547C53.7847 13.5547 52.5525 14.7869 52.5525 16.3068V46.9257C52.5525 48.4457 53.7847 49.6779 55.3047 49.6779V49.6779V13.5547Z" fill="white"/>
<path d="M55.3047 13.5547V13.5547C53.7847 13.5547 52.5525 14.7869 52.5525 16.3068V46.9257C52.5525 48.4457 53.7847 49.6779 55.3047 49.6779V49.6779V13.5547Z" fill="white"/>
<path d="M55.3047 13.5547V13.5547C53.7847 13.5547 52.5525 14.7869 52.5525 16.3068V46.9257C52.5525 48.4457 53.7847 49.6779 55.3047 49.6779V49.6779V13.5547Z" fill="white"/>
<rect x="19.5078" y="9.01562" width="2.75215" height="14.105" fill="white"/>
<rect x="19.5078" y="9.01562" width="2.75215" height="14.105" fill="white"/>
<rect x="19.5078" y="9.01562" width="2.75215" height="14.105" fill="white"/>
<rect x="19.5078" y="9.01562" width="2.75215" height="14.105" fill="white"/>
<path d="M14 11.7678C14 10.2478 15.2322 9.01562 16.7522 9.01562V9.01562V23.1206H14V11.7678Z" fill="white"/>
<path d="M14 11.7678C14 10.2478 15.2322 9.01562 16.7522 9.01562V9.01562V23.1206H14V11.7678Z" fill="white"/>
<path d="M14 11.7678C14 10.2478 15.2322 9.01562 16.7522 9.01562V9.01562V23.1206H14V11.7678Z" fill="white"/>
<path d="M14 11.7678C14 10.2478 15.2322 9.01562 16.7522 9.01562V9.01562V23.1206H14V11.7678Z" fill="white"/>
<rect x="30.5156" y="9.01562" width="2.75215" height="14.105" fill="white"/>
<rect x="30.5156" y="9.01562" width="2.75215" height="14.105" fill="white"/>
<rect x="30.5156" y="9.01562" width="2.75215" height="14.105" fill="white"/>
<rect x="30.5156" y="9.01562" width="2.75215" height="14.105" fill="white"/>
<path d="M47.0234 9.01562V9.01562C48.5434 9.01562 49.7756 10.2478 49.7756 11.7678V23.1206H47.0234V9.01562Z" fill="white"/>
<path d="M47.0234 9.01562V9.01562C48.5434 9.01562 49.7756 10.2478 49.7756 11.7678V23.1206H47.0234V9.01562Z" fill="white"/>
<path d="M47.0234 9.01562V9.01562C48.5434 9.01562 49.7756 10.2478 49.7756 11.7678V23.1206H47.0234V9.01562Z" fill="white"/>
<path d="M47.0234 9.01562V9.01562C48.5434 9.01562 49.7756 10.2478 49.7756 11.7678V23.1206H47.0234V9.01562Z" fill="white"/>
<rect x="41.5312" y="9.01562" width="2.75215" height="14.105" fill="white"/>
<rect x="41.5312" y="9.01562" width="2.75215" height="14.105" fill="white"/>
<rect x="41.5312" y="9.01562" width="2.75215" height="14.105" fill="white"/>
<rect x="41.5312" y="9.01562" width="2.75215" height="14.105" fill="white"/>
<rect x="36.0312" y="9.01562" width="2.75215" height="14.105" fill="white"/>
<rect x="36.0312" y="9.01562" width="2.75215" height="14.105" fill="white"/>
<rect x="36.0312" y="9.01562" width="2.75215" height="14.105" fill="white"/>
<rect x="36.0312" y="9.01562" width="2.75215" height="14.105" fill="white"/>
<rect x="25.0156" y="9.01562" width="2.75215" height="14.105" fill="white"/>
<rect x="25.0156" y="9.01562" width="2.75215" height="14.105" fill="white"/>
<rect x="25.0156" y="9.01562" width="2.75215" height="14.105" fill="white"/>
<rect x="25.0156" y="9.01562" width="2.75215" height="14.105" fill="white"/>
<rect x="19.5078" y="39.7266" width="2.75215" height="14.3581" fill="white"/>
<rect x="19.5078" y="39.7266" width="2.75215" height="14.3581" fill="white"/>
<rect x="19.5078" y="39.7266" width="2.75215" height="14.3581" fill="white"/>
<rect x="19.5078" y="39.7266" width="2.75215" height="14.3581" fill="white"/>
<path d="M14 39.7266H16.7522V54.0847V54.0847C15.2322 54.0847 14 52.8525 14 51.3325V39.7266Z" fill="white"/>
<path d="M14 39.7266H16.7522V54.0847V54.0847C15.2322 54.0847 14 52.8525 14 51.3325V39.7266Z" fill="white"/>
<path d="M14 39.7266H16.7522V54.0847V54.0847C15.2322 54.0847 14 52.8525 14 51.3325V39.7266Z" fill="white"/>
<path d="M14 39.7266H16.7522V54.0847V54.0847C15.2322 54.0847 14 52.8525 14 51.3325V39.7266Z" fill="white"/>
<rect x="30.5156" y="39.7266" width="2.75215" height="14.3581" fill="white"/>
<rect x="30.5156" y="39.7266" width="2.75215" height="14.3581" fill="white"/>
<rect x="30.5156" y="39.7266" width="2.75215" height="14.3581" fill="white"/>
<rect x="30.5156" y="39.7266" width="2.75215" height="14.3581" fill="white"/>
<path d="M47.0234 39.7266H49.7756V51.3325C49.7756 52.8525 48.5434 54.0847 47.0234 54.0847V54.0847V39.7266Z" fill="white"/>
<path d="M47.0234 39.7266H49.7756V51.3325C49.7756 52.8525 48.5434 54.0847 47.0234 54.0847V54.0847V39.7266Z" fill="white"/>
<path d="M47.0234 39.7266H49.7756V51.3325C49.7756 52.8525 48.5434 54.0847 47.0234 54.0847V54.0847V39.7266Z" fill="white"/>
<path d="M47.0234 39.7266H49.7756V51.3325C49.7756 52.8525 48.5434 54.0847 47.0234 54.0847V54.0847V39.7266Z" fill="white"/>
<rect x="41.5312" y="39.7266" width="2.75215" height="14.3581" fill="white"/>
<rect x="41.5312" y="39.7266" width="2.75215" height="14.3581" fill="white"/>
<rect x="41.5312" y="39.7266" width="2.75215" height="14.3581" fill="white"/>
<rect x="41.5312" y="39.7266" width="2.75215" height="14.3581" fill="white"/>
<rect x="36.0312" y="39.7266" width="2.75215" height="14.3581" fill="white"/>
<rect x="36.0312" y="39.7266" width="2.75215" height="14.3581" fill="white"/>
<rect x="36.0312" y="39.7266" width="2.75215" height="14.3581" fill="white"/>
<rect x="36.0312" y="39.7266" width="2.75215" height="14.3581" fill="white"/>
<rect x="25.0156" y="39.7266" width="2.75215" height="14.3581" fill="white"/>
<rect x="25.0156" y="39.7266" width="2.75215" height="14.3581" fill="white"/>
<rect x="25.0156" y="39.7266" width="2.75215" height="14.3581" fill="white"/>
<rect x="25.0156" y="39.7266" width="2.75215" height="14.3581" fill="white"/>
<path d="M41.1536 37.0564H39.1427V31.4171C39.1427 30.6759 38.9148 29.9992 38.459 29.3869C38.0165 28.7747 37.4132 28.2913 36.6491 27.9368C35.8849 27.5716 35.0403 27.389 34.1153 27.389H33.0293V37.0564H31.0184V25.7778H34.1153C35.3889 25.7778 36.5552 26.0302 37.6143 26.5351C38.6869 27.0399 39.5315 27.7005 40.1482 28.5169C40.7649 27.7005 41.6028 27.0399 42.6619 26.5351C43.7344 26.0302 44.9075 25.7778 46.1811 25.7778H49.278V37.0564H47.267V27.389H46.1811C45.256 27.389 44.4114 27.5716 43.6472 27.9368C42.8965 28.2913 42.2932 28.7747 41.8374 29.3869C41.3816 29.9992 41.1536 30.6759 41.1536 31.4171V37.0564Z" fill="#F96000"/>
<path fill-rule="evenodd" clip-rule="evenodd" d="M41.5258 37.4591H38.7705V31.2637C38.7705 30.013 37.6825 28.7374 36.3943 28.1308C35.6972 27.8024 34.9183 27.6385 34.1153 27.6385L33.2678 27.6451V37.4658L30.5156 37.4591V25.375H34.1153C35.4757 25.375 36.7309 25.6455 37.8701 26.1883C38.7805 26.617 39.5413 27.1539 40.1478 27.7985C40.7514 27.1546 41.5052 26.6177 42.4048 26.1889L42.406 26.1883L42.4072 26.1878C43.5588 25.6457 44.8202 25.375 46.1811 25.375H49.7807V37.4591H47.0255V32.6255V27.6385H46.1811C45.3822 27.6385 44.5958 27.7993 43.9036 28.13C42.6162 28.7372 41.5258 30.0132 41.5258 31.2637V37.4591ZM46.1811 27.389C45.256 27.389 44.4114 27.5716 43.6472 27.9368C42.8965 28.2913 42.2932 28.7747 41.8374 29.3869C41.3816 29.9992 41.1536 30.6759 41.1536 31.4171V37.0563H39.1427V31.4171C39.1427 30.6759 38.9148 29.9992 38.4589 29.3869C38.0165 28.7747 37.4132 28.2913 36.6491 27.9368C35.8849 27.5716 35.0403 27.389 34.1153 27.389H33.0293V37.0563H31.0184V25.7778H34.1153C35.3889 25.7778 36.5552 26.0302 37.6143 26.5351C38.5201 26.9614 39.2632 27.4988 39.8439 28.1473C39.9508 28.2667 40.0523 28.3899 40.1482 28.5169C40.2441 28.3898 40.3455 28.2666 40.4522 28.1471C41.031 27.4987 41.7676 26.9614 42.6619 26.5351C43.7344 26.0302 44.9075 25.7778 46.1811 25.7778H49.278V37.0563H47.267V27.389H46.1811Z" fill="#F96000"/>
<path fill-rule="evenodd" clip-rule="evenodd" d="M28.1354 35.6725L28.1343 35.6742C27.7908 36.2145 27.3305 36.6489 26.7579 36.9731C26.1746 37.3034 25.5227 37.4658 24.8129 37.4658H14V35.2011H24.8129C25.1798 35.2011 25.4737 34.9331 25.7212 34.7006C25.9743 34.4524 26.0941 34.1715 26.0941 33.8386C26.0941 33.5049 25.974 33.2312 25.7238 32.9951L25.7212 32.9927L25.7187 32.9902C25.4695 32.7469 25.1763 32.4761 24.8129 32.4761H17.8435C17.1436 32.4761 16.4935 32.4664 15.902 32.1388L15.9002 32.1378L15.8985 32.1368C15.3259 31.8126 14.8656 31.3782 14.5221 30.8378L14.521 30.8362L14.52 30.8345C14.1728 30.2763 14 29.6627 14 29.0022C14 28.3424 14.1725 27.7334 14.521 27.1845C14.8639 26.6337 15.3242 26.1929 15.8985 25.8677L15.9002 25.8667L15.902 25.8657C16.4935 25.5381 17.1436 25.375 17.8435 25.375H27.8023V27.6397H17.8435C17.4941 27.6397 17.1973 27.909 16.9326 28.1588C16.6824 28.3949 16.5623 28.6685 16.5623 29.0022C16.5623 29.3341 16.6813 29.6143 16.9327 29.8618C17.195 30.099 17.4918 30.2113 17.8435 30.2113H24.8129C25.5227 30.2113 26.1746 30.3737 26.7579 30.704C27.3321 31.0292 27.7924 31.47 28.1353 32.0207C28.4839 32.5696 28.6564 33.1787 28.6564 33.8386C28.6564 34.4991 28.4836 35.1126 28.1364 35.6708L28.1354 35.6725ZM16.6306 30.1468C16.3004 29.8244 16.1353 29.4429 16.1353 29.0022C16.1353 28.5616 16.3004 28.1854 16.6306 27.8738C16.9723 27.5513 17.3765 27.3901 17.8435 27.3901H27.3752V25.778H17.8435C17.2171 25.778 16.642 25.9231 16.1182 26.2133C15.6057 26.5035 15.1957 26.8958 14.8883 27.3901C14.5808 27.8738 14.4271 28.4111 14.4271 29.0022C14.4271 29.5934 14.5808 30.1361 14.8883 30.6305C15.1957 31.1141 15.6057 31.501 16.1182 31.7912C16.642 32.0814 17.2171 32.2265 17.8435 32.2265H24.8129C25.2912 32.2265 25.6955 32.3877 26.0257 32.7101C26.356 33.0218 26.5211 33.3979 26.5211 33.8386C26.5211 34.2792 26.356 34.6607 26.0257 34.9832C25.6955 35.2948 25.2912 35.4507 24.8129 35.4507H14.4271V37.0628H24.8129C25.4507 37.0628 26.0257 36.9177 26.5382 36.6275C27.0507 36.3373 27.4606 35.9504 27.7681 35.4668C28.0756 34.9724 28.2293 34.4297 28.2293 33.8386C28.2293 33.2475 28.0756 32.7101 27.7681 32.2265C27.4606 31.7321 27.0507 31.3398 26.5382 31.0496C26.0257 30.7594 25.4507 30.6144 24.8129 30.6144H17.8435C17.3765 30.6144 16.9723 30.4585 16.6306 30.1468Z" fill="#F96000"/>
<path d="M28.2293 33.8386C28.2293 34.4297 28.0756 34.9724 27.7681 35.4668C27.4606 35.9504 27.0507 36.3374 26.5382 36.6275C26.0258 36.9177 25.4507 37.0628 24.8129 37.0628H14.4271V35.4507H24.8129C25.2912 35.4507 25.6955 35.2949 26.0258 34.9832C26.356 34.6608 26.5211 34.2792 26.5211 33.8386C26.5211 33.3979 26.356 33.0218 26.0258 32.7101C25.6955 32.3877 25.2912 32.2265 24.8129 32.2265H17.8435C17.2171 32.2265 16.642 32.0814 16.1182 31.7912C15.6057 31.501 15.1957 31.1141 14.8883 30.6305C14.5808 30.1361 14.4271 29.5934 14.4271 29.0023C14.4271 28.4111 14.5808 27.8738 14.8883 27.3901C15.1957 26.8958 15.6057 26.5035 16.1182 26.2133C16.642 25.9231 17.2171 25.778 17.8435 25.778H27.3752V27.3901H17.8435C17.3766 27.3901 16.9723 27.5514 16.6306 27.8738C16.3004 28.1855 16.1353 28.5616 16.1353 29.0023C16.1353 29.4429 16.3004 29.8244 16.6306 30.1469C16.9723 30.4585 17.3766 30.6144 17.8435 30.6144H24.8129C25.4507 30.6144 26.0258 30.7595 26.5382 31.0496C27.0507 31.3398 27.4606 31.7321 27.7681 32.2265C28.0756 32.7101 28.2293 33.2475 28.2293 33.8386Z" fill="#F96000"/>
</svg>
