<svg width="267" height="264" viewBox="0 0 267 264" fill="none" xmlns="http://www.w3.org/2000/svg">
<rect x="3" width="264" height="264" rx="66" fill="#27A7E7"/>
<path d="M26.297 147.1C17.889 145.04 16.9535 133.458 24.9216 130.075L211.701 50.7698C219.66 47.3904 228.227 54.0928 226.862 62.6313L202.723 213.632C200.853 225.329 187.362 231.009 177.689 224.172L119.855 183.293C110.049 176.362 109.051 162.186 117.79 153.951L157.745 116.297C162.184 112.113 156.69 105.136 151.582 108.471L92.1726 147.259C80.8165 154.673 66.8952 157.049 53.7228 153.821L26.297 147.1Z" fill="white"/>
<path d="M163.633 50.5524H157.513V33.3892C157.513 31.1335 156.819 29.0739 155.432 27.2104C154.086 25.347 152.249 23.8759 149.924 22.797C147.598 21.6855 145.027 21.1298 142.212 21.1298H138.907V50.5524H132.786V16.226H142.212C146.088 16.226 149.638 16.9942 152.861 18.5308C156.126 20.0673 158.696 22.0778 160.573 24.5624C162.45 22.0778 165 20.0673 168.224 18.5308C171.488 16.9942 175.058 16.226 178.934 16.226H188.36V50.5524H182.239V21.1298H178.934C176.119 21.1298 173.548 21.6855 171.223 22.797C168.938 23.8759 167.102 25.347 165.714 27.2104C164.327 29.0739 163.633 31.1335 163.633 33.3892V50.5524Z" fill="#F96000"/>
<path fill-rule="evenodd" clip-rule="evenodd" d="M164.766 51.7783H156.38V32.9224C156.38 29.1157 153.069 25.2336 149.148 23.3872C147.027 22.388 144.656 21.8889 142.212 21.8889L139.633 21.9092V51.7986L131.256 51.7783V15H142.212C146.352 15 150.173 15.8233 153.64 17.4753C156.411 18.7799 158.726 20.4141 160.572 22.376C162.409 20.4162 164.703 18.7823 167.441 17.4771L167.445 17.4754L167.449 17.4737C170.954 15.8238 174.792 15 178.934 15H189.89V51.7783H181.504V37.067V21.8889H178.934C176.503 21.8889 174.11 22.3783 172.003 23.3848C168.085 25.233 164.766 29.1164 164.766 32.9224V51.7783ZM178.934 21.1297C176.119 21.1297 173.548 21.6855 171.223 22.797C168.938 23.8758 167.102 25.347 165.714 27.2104C164.327 29.0738 163.633 31.1334 163.633 33.3892V50.5524H157.513V33.3892C157.513 31.1334 156.819 29.0738 155.432 27.2104C154.086 25.347 152.249 23.8758 149.924 22.797C147.598 21.6855 145.027 21.1297 142.212 21.1297H138.907V50.5524H132.786V16.2259H142.212C146.088 16.2259 149.638 16.9942 152.861 18.5307C155.618 19.8283 157.88 21.4639 159.647 23.4376C159.973 23.801 160.281 24.176 160.573 24.5624C160.865 24.1757 161.174 23.8005 161.498 23.4368C163.26 21.4635 165.502 19.8281 168.224 18.5307C171.488 16.9942 175.058 16.2259 178.934 16.2259H188.36V50.5524H182.239V21.1297H178.934Z" fill="#F96000"/>
<path fill-rule="evenodd" clip-rule="evenodd" d="M124.021 46.3406L124.018 46.3457C122.972 47.9903 121.572 49.3123 119.829 50.2991C118.054 51.3043 116.069 51.7986 113.909 51.7986H81V44.9059H113.909C115.026 44.9059 115.92 44.0901 116.674 43.3826C117.444 42.6274 117.809 41.7724 117.809 40.759C117.809 39.7434 117.443 38.9105 116.682 38.1918L116.674 38.1845L116.666 38.177C115.908 37.4366 115.015 36.6122 113.909 36.6122H92.6976C90.5676 36.6122 88.589 36.5829 86.7888 35.5857L86.7834 35.5827L86.778 35.5796C85.0354 34.5929 83.6345 33.2708 82.5889 31.6262L82.5857 31.6211L82.5825 31.616C81.5259 29.9171 81 28.0498 81 26.0396C81 24.0314 81.5249 22.1777 82.5857 20.5071C83.6294 18.8308 85.0303 17.4892 86.778 16.4996L86.7834 16.4965L86.7888 16.4935C88.589 15.4963 90.5676 15 92.6976 15H123.007V21.8927H92.6976C91.6345 21.8927 90.7309 22.7122 89.9254 23.4724C89.164 24.191 88.7984 25.0239 88.7984 26.0396C88.7984 27.0496 89.1606 27.9023 89.9256 28.6557C90.7239 29.3777 91.6274 29.7194 92.6976 29.7194H113.909C116.069 29.7194 118.054 30.2137 119.829 31.219C121.577 32.2086 122.977 33.5501 124.021 35.2264C125.082 36.897 125.607 38.7508 125.607 40.759C125.607 42.7693 125.081 44.6365 124.024 46.3355L124.021 46.3406ZM89.0064 29.5232C88.0012 28.5419 87.4987 27.3807 87.4987 26.0396C87.4987 24.6985 88.0012 23.5536 89.0064 22.605C90.0462 21.6238 91.2766 21.1331 92.6976 21.1331H121.708V16.2266H92.6976C90.7913 16.2266 89.041 16.6682 87.4467 17.5514C85.887 18.4345 84.6393 19.6284 83.7035 21.1331C82.7676 22.605 82.2997 24.2405 82.2997 26.0396C82.2997 27.8386 82.7676 29.4905 83.7035 30.9951C84.6393 32.4671 85.887 33.6446 87.4467 34.5278C89.041 35.411 90.7913 35.8526 92.6976 35.8526H113.909C115.365 35.8526 116.595 36.3432 117.601 37.3245C118.606 38.2731 119.108 39.4179 119.108 40.759C119.108 42.1001 118.606 43.2613 117.601 44.2426C116.595 45.1912 115.365 45.6655 113.909 45.6655H82.2997V50.572H113.909C115.85 50.572 117.601 50.1304 119.16 49.2472C120.72 48.3641 121.968 47.1865 122.904 45.7146C123.839 44.2099 124.307 42.5581 124.307 40.759C124.307 38.96 123.839 37.3245 122.904 35.8526C121.968 34.3479 120.72 33.154 119.16 32.2708C117.601 31.3877 115.85 30.9461 113.909 30.9461H92.6976C91.2766 30.9461 90.0462 30.4718 89.0064 29.5232Z" fill="#F96000"/>
<path d="M124.307 40.7591C124.307 42.5581 123.839 44.21 122.904 45.7146C121.968 47.1866 120.72 48.3641 119.16 49.2473C117.601 50.1304 115.85 50.572 113.909 50.572H82.2997V45.6655H113.909C115.365 45.6655 116.595 45.1913 117.601 44.2427C118.606 43.2614 119.108 42.1002 119.108 40.7591C119.108 39.418 118.606 38.2731 117.601 37.3245C116.595 36.3432 115.365 35.8526 113.909 35.8526H92.6976C90.7914 35.8526 89.041 35.411 87.4467 34.5278C85.887 33.6447 84.6393 32.4671 83.7035 30.9952C82.7677 29.4905 82.2997 27.8387 82.2997 26.0396C82.2997 24.2406 82.7677 22.6051 83.7035 21.1331C84.6393 19.6285 85.887 18.4346 87.4467 17.5514C89.041 16.6682 90.7914 16.2267 92.6976 16.2267H121.708V21.1331H92.6976C91.2766 21.1331 90.0462 21.6238 89.0064 22.6051C88.0013 23.5537 87.4987 24.6985 87.4987 26.0396C87.4987 27.3807 88.0013 28.5419 89.0064 29.5232C90.0462 30.4718 91.2766 30.9461 92.6976 30.9461H113.909C115.85 30.9461 117.601 31.3877 119.16 32.2708C120.72 33.154 121.968 34.3479 122.904 35.8526C123.839 37.3245 124.307 38.96 124.307 40.7591Z" fill="#F96000"/>
</svg>
