<svg width="264" height="264" viewBox="0 0 264 264" fill="none" xmlns="http://www.w3.org/2000/svg">
<rect width="264" height="264" rx="66" fill="#0078FF"/>
<path d="M112.045 72H145.033V122.228C181.405 114.63 192.823 72 192.823 72H225.388C225.388 72 220.736 109.29 181.405 134.89C181.405 134.89 182.039 135.312 181.405 135.312C223.696 155.572 233 198.625 233 198.625H197.475C197.475 198.625 183.519 155.572 145.033 153.462V198.625C145.033 198.625 230.46 199.469 129.808 198.625C29.1558 197.781 30.0002 72 30.0002 72H65.102C65.102 72 63.8347 145.02 112.045 159.793V72Z" fill="white"/>
</svg>
